# xmcd CD database file
#
# Track frame offsets:
#	150
#	20397
#	32181
#	50423
#	71358
#	91037
#	109943
#	122765
#	135148
#	144890
#	156394
#	172840
#
# Disc length: 2564 seconds
#
# Revision: 0
# Processed by: cddbd v1.5.2PL0 Copyright (c) Steve Scherf et al.
# Submitted via: CDex 1.70beta2
#
DISCID=900a020c
DTITLE=Burt Bacharach - The Amazing
DYEAR=1900
DGENRE=Jazz
TTITLE0=Close To You
TTITLE1=Walk On By
TTITLE2=Raindrops Keep Falling On My Head
TTITLE3=This House Is Empty Now
TTITLE4=I'll Never Fall In Love Again
TTITLE5=This Guy's In Love With You
TTITLE6=I Say A Little Prayer
TTITLE7=Alfie
TTITLE8=What The World Needs Now Is Love
TTITLE9=Magic Moments
TTITLE10=Close To You
TTITLE11=No, Non Mi Innamoro Piu
EXTD=
EXTT0=
EXTT1=
EXTT2=
EXTT3=
EXTT4=
EXTT5=
EXTT6=
EXTT7=
EXTT8=
EXTT9=
EXTT10=
EXTT11=
PLAYORDER=
